<svg xmlns="http://www.w3.org/2000/svg" viewBox="0 0 96 96">
  <path d="M17 12h31c18 0 29 9 29 23 0 8-4 15-11 19 9 4 15 11 15 21 0 15-12 25-31 25H17V12Z" fill="#073b67"/>
  <path d="M28 24h21c8 0 13 4 13 10 0 7-5 11-13 11H28V24Zm0 35h24c9 0 14 4 14 11 0 8-5 12-15 12H28V59Z" fill="#ffffff"/>
  <path d="M22 44h38" fill="none" stroke="#13a6d6" stroke-linecap="round" stroke-width="5"/>
  <circle cx="57" cy="36" r="10" fill="#ffffff" stroke="#13a6d6" stroke-width="5"/>
  <path d="M64 43l10 10" fill="none" stroke="#13a6d6" stroke-linecap="round" stroke-width="5"/>
  <path d="M15 82l25-25 14 13 27-31" fill="none" stroke="#ffffff" stroke-linecap="round" stroke-linejoin="round" stroke-width="8"/>
  <path d="M15 82l25-25 14 13 27-31" fill="none" stroke="#139fd1" stroke-linecap="round" stroke-linejoin="round" stroke-width="5"/>
  <path d="M78 39l14-5-5 14-2-7-7-2Z" fill="#139fd1"/>
  <path d="M56 79l16-16" fill="none" stroke="#139fd1" stroke-linecap="round" stroke-width="5"/>
  <path d="M70 62l13-4-4 13-2-7-7-2Z" fill="#139fd1"/>
</svg>
